<svg xmlns="http://www.w3.org/2000/svg" width="1600" height="1000" viewBox="0 0 160 100" preserveAspectRatio="none">
  <defs>
    <radialGradient id="blue" cx="22" cy="14" r="94" gradientUnits="userSpaceOnUse">
      <stop stop-color="#18294c" stop-opacity="0.34" />
      <stop offset="0.62" stop-color="#18294c" stop-opacity="0" />
    </radialGradient>
    <radialGradient id="violet" cx="132" cy="78" r="88" gradientUnits="userSpaceOnUse">
      <stop stop-color="#191c3d" stop-opacity="0.3" />
      <stop offset="0.68" stop-color="#191c3d" stop-opacity="0" />
    </radialGradient>
  </defs>

  <rect width="160" height="100" fill="#060914" />
  <rect width="160" height="100" fill="url(#blue)" />
  <rect width="160" height="100" fill="url(#violet)" />

  <g fill="#f3f0e8">
    <circle cx="8" cy="13" r="0.1" opacity="0.56" />
    <circle cx="19" cy="6" r="0.07" opacity="0.42" />
    <circle cx="31" cy="23" r="0.13" opacity="0.72" />
    <circle cx="43" cy="11" r="0.08" opacity="0.4" />
    <circle cx="55" cy="31" r="0.09" opacity="0.52" />
    <circle cx="67" cy="7" r="0.06" opacity="0.34" />
    <circle cx="79" cy="19" r="0.14" opacity="0.76" />
    <circle cx="92" cy="9" r="0.08" opacity="0.45" />
    <circle cx="106" cy="27" r="0.1" opacity="0.58" />
    <circle cx="119" cy="14" r="0.06" opacity="0.38" />
    <circle cx="137" cy="22" r="0.12" opacity="0.68" />
    <circle cx="151" cy="8" r="0.07" opacity="0.46" />
    <circle cx="14" cy="44" r="0.08" opacity="0.38" />
    <circle cx="27" cy="57" r="0.12" opacity="0.64" />
    <circle cx="39" cy="41" r="0.06" opacity="0.32" />
    <circle cx="51" cy="68" r="0.09" opacity="0.5" />
    <circle cx="63" cy="51" r="0.15" opacity="0.8" />
    <circle cx="75" cy="61" r="0.07" opacity="0.4" />
    <circle cx="88" cy="43" r="0.1" opacity="0.55" />
    <circle cx="101" cy="65" r="0.08" opacity="0.44" />
    <circle cx="116" cy="49" r="0.13" opacity="0.7" />
    <circle cx="128" cy="59" r="0.06" opacity="0.36" />
    <circle cx="145" cy="46" r="0.09" opacity="0.48" />
    <circle cx="155" cy="69" r="0.11" opacity="0.6" />
    <circle cx="5" cy="81" r="0.12" opacity="0.66" />
    <circle cx="22" cy="92" r="0.07" opacity="0.4" />
    <circle cx="36" cy="77" r="0.09" opacity="0.5" />
    <circle cx="58" cy="88" r="0.06" opacity="0.36" />
    <circle cx="73" cy="79" r="0.13" opacity="0.72" />
    <circle cx="94" cy="93" r="0.08" opacity="0.42" />
    <circle cx="111" cy="82" r="0.1" opacity="0.56" />
    <circle cx="134" cy="91" r="0.07" opacity="0.4" />
    <circle cx="149" cy="84" r="0.14" opacity="0.74" />
  </g>
</svg>
