<svg xmlns="http://www.w3.org/2000/svg" width="1600" height="1000" viewBox="0 0 160 100" preserveAspectRatio="none">
  <defs>
    <radialGradient id="blue" cx="22" cy="14" r="94" gradientUnits="userSpaceOnUse">
      <stop stop-color="#18294c" stop-opacity="0.18" />
      <stop offset="0.62" stop-color="#18294c" stop-opacity="0" />
    </radialGradient>
    <radialGradient id="violet" cx="132" cy="78" r="88" gradientUnits="userSpaceOnUse">
      <stop stop-color="#191c3d" stop-opacity="0.16" />
      <stop offset="0.68" stop-color="#191c3d" stop-opacity="0" />
    </radialGradient>
  </defs>

  <rect width="160" height="100" fill="#040711" />
  <rect width="160" height="100" fill="url(#blue)" />
  <rect width="160" height="100" fill="url(#violet)" />

  <g fill="#f3f0e8">
    <circle cx="2.0" cy="6.7" r="0.11" opacity="0.69" />
    <circle cx="24.7" cy="4.6" r="0.07" opacity="0.71" />
    <circle cx="32.9" cy="3.1" r="0.12" opacity="0.48" />
    <circle cx="49.8" cy="2.1" r="0.06" opacity="0.75" />
    <circle cx="58.6" cy="6.0" r="0.11" opacity="0.51" />
    <circle cx="73.2" cy="5.4" r="0.09" opacity="0.55" />
    <circle cx="81.8" cy="2.3" r="0.12" opacity="0.66" />
    <circle cx="99.4" cy="1.2" r="0.13" opacity="0.40" />
    <circle cx="116.3" cy="5.7" r="0.06" opacity="0.44" />
    <circle cx="124.2" cy="2.3" r="0.06" opacity="0.61" />
    <circle cx="140.5" cy="5.8" r="0.08" opacity="0.45" />
    <circle cx="157.3" cy="6.1" r="0.09" opacity="0.66" />
    <circle cx="8.4" cy="16.3" r="0.05" opacity="0.38" />
    <circle cx="21.0" cy="16.5" r="0.12" opacity="0.53" />
    <circle cx="31.0" cy="11.8" r="0.12" opacity="0.69" />
    <circle cx="47.9" cy="14.5" r="0.09" opacity="0.51" />
    <circle cx="59.0" cy="15.4" r="0.11" opacity="0.39" />
    <circle cx="68.6" cy="17.1" r="0.11" opacity="0.39" />
    <circle cx="87.0" cy="11.5" r="0.13" opacity="0.72" />
    <circle cx="96.9" cy="12.2" r="0.11" opacity="0.46" />
    <circle cx="115.6" cy="11.6" r="0.06" opacity="0.66" />
    <circle cx="131.4" cy="16.2" r="0.11" opacity="0.32" />
    <circle cx="142.7" cy="15.7" r="0.05" opacity="0.37" />
    <circle cx="151.9" cy="13.4" r="0.05" opacity="0.34" />
    <circle cx="3.3" cy="28.1" r="0.13" opacity="0.45" />
    <circle cx="15.2" cy="22.8" r="0.12" opacity="0.73" />
    <circle cx="38.3" cy="27.4" r="0.11" opacity="0.56" />
    <circle cx="49.5" cy="28.4" r="0.08" opacity="0.35" />
    <circle cx="59.3" cy="24.4" r="0.06" opacity="0.56" />
    <circle cx="71.8" cy="26.2" r="0.09" opacity="0.65" />
    <circle cx="90.9" cy="25.2" r="0.09" opacity="0.50" />
    <circle cx="102.2" cy="25.0" r="0.13" opacity="0.40" />
    <circle cx="108.4" cy="27.3" r="0.11" opacity="0.42" />
    <circle cx="123.6" cy="23.5" r="0.08" opacity="0.54" />
    <circle cx="138.3" cy="22.6" r="0.12" opacity="0.35" />
    <circle cx="158.3" cy="21.8" r="0.08" opacity="0.69" />
    <circle cx="4.6" cy="38.2" r="0.12" opacity="0.74" />
    <circle cx="16.8" cy="34.8" r="0.12" opacity="0.53" />
    <circle cx="32.6" cy="32.7" r="0.09" opacity="0.53" />
    <circle cx="49.2" cy="33.4" r="0.07" opacity="0.52" />
    <circle cx="64.7" cy="34.4" r="0.10" opacity="0.77" />
    <circle cx="70.6" cy="31.3" r="0.13" opacity="0.34" />
    <circle cx="82.5" cy="35.6" r="0.07" opacity="0.36" />
    <circle cx="103.9" cy="33.7" r="0.12" opacity="0.70" />
    <circle cx="110.5" cy="36.0" r="0.06" opacity="0.68" />
    <circle cx="129.4" cy="38.2" r="0.05" opacity="0.55" />
    <circle cx="135.2" cy="32.8" r="0.13" opacity="0.78" />
    <circle cx="157.2" cy="37.5" r="0.12" opacity="0.30" />
    <circle cx="11.6" cy="43.4" r="0.07" opacity="0.57" />
    <circle cx="20.3" cy="43.7" r="0.10" opacity="0.42" />
    <circle cx="38.1" cy="45.8" r="0.13" opacity="0.59" />
    <circle cx="44.0" cy="45.8" r="0.11" opacity="0.33" />
    <circle cx="59.5" cy="45.6" r="0.08" opacity="0.34" />
    <circle cx="69.6" cy="44.1" r="0.11" opacity="0.30" />
    <circle cx="85.3" cy="41.3" r="0.14" opacity="0.29" />
    <circle cx="96.6" cy="48.4" r="0.07" opacity="0.41" />
    <circle cx="116.5" cy="42.6" r="0.07" opacity="0.58" />
    <circle cx="123.2" cy="42.5" r="0.08" opacity="0.72" />
    <circle cx="135.2" cy="47.9" r="0.12" opacity="0.36" />
    <circle cx="149.2" cy="44.6" r="0.08" opacity="0.49" />
    <circle cx="7.5" cy="57.0" r="0.10" opacity="0.43" />
    <circle cx="20.5" cy="56.1" r="0.13" opacity="0.58" />
    <circle cx="34.1" cy="52.3" r="0.07" opacity="0.54" />
    <circle cx="45.5" cy="55.6" r="0.06" opacity="0.29" />
    <circle cx="58.7" cy="55.6" r="0.12" opacity="0.31" />
    <circle cx="72.6" cy="51.4" r="0.13" opacity="0.42" />
    <circle cx="84.4" cy="54.2" r="0.06" opacity="0.41" />
    <circle cx="100.5" cy="55.4" r="0.14" opacity="0.74" />
    <circle cx="115.4" cy="55.2" r="0.09" opacity="0.48" />
    <circle cx="125.7" cy="58.3" r="0.11" opacity="0.37" />
    <circle cx="137.7" cy="55.5" r="0.05" opacity="0.28" />
    <circle cx="158.1" cy="57.2" r="0.10" opacity="0.51" />
    <circle cx="9.4" cy="67.3" r="0.12" opacity="0.53" />
    <circle cx="21.5" cy="63.1" r="0.14" opacity="0.56" />
    <circle cx="36.7" cy="63.2" r="0.05" opacity="0.36" />
    <circle cx="47.1" cy="66.2" r="0.05" opacity="0.29" />
    <circle cx="56.9" cy="63.3" r="0.12" opacity="0.71" />
    <circle cx="69.7" cy="66.6" r="0.11" opacity="0.50" />
    <circle cx="90.5" cy="66.0" r="0.12" opacity="0.71" />
    <circle cx="95.0" cy="68.3" r="0.08" opacity="0.52" />
    <circle cx="117.4" cy="66.1" r="0.09" opacity="0.66" />
    <circle cx="129.4" cy="64.6" r="0.07" opacity="0.51" />
    <circle cx="140.4" cy="67.9" r="0.10" opacity="0.35" />
    <circle cx="157.5" cy="65.4" r="0.11" opacity="0.58" />
    <circle cx="6.8" cy="78.8" r="0.12" opacity="0.62" />
    <circle cx="24.8" cy="76.1" r="0.08" opacity="0.30" />
    <circle cx="30.0" cy="73.9" r="0.11" opacity="0.29" />
    <circle cx="46.2" cy="72.2" r="0.10" opacity="0.73" />
    <circle cx="64.6" cy="75.3" r="0.07" opacity="0.73" />
    <circle cx="70.0" cy="73.5" r="0.07" opacity="0.65" />
    <circle cx="81.7" cy="73.9" r="0.08" opacity="0.41" />
    <circle cx="96.4" cy="74.9" r="0.10" opacity="0.44" />
    <circle cx="118.3" cy="72.6" r="0.08" opacity="0.28" />
    <circle cx="122.7" cy="75.9" r="0.10" opacity="0.41" />
    <circle cx="138.3" cy="74.5" r="0.10" opacity="0.48" />
    <circle cx="156.6" cy="73.1" r="0.05" opacity="0.48" />
    <circle cx="5.0" cy="86.3" r="0.07" opacity="0.46" />
    <circle cx="18.0" cy="86.8" r="0.09" opacity="0.39" />
    <circle cx="35.8" cy="81.7" r="0.11" opacity="0.59" />
    <circle cx="44.8" cy="81.6" r="0.13" opacity="0.62" />
    <circle cx="63.4" cy="83.5" r="0.05" opacity="0.42" />
    <circle cx="76.1" cy="85.3" r="0.12" opacity="0.45" />
    <circle cx="81.9" cy="88.7" r="0.10" opacity="0.65" />
    <circle cx="102.3" cy="87.6" r="0.13" opacity="0.66" />
    <circle cx="111.7" cy="88.2" r="0.13" opacity="0.52" />
    <circle cx="124.8" cy="82.4" r="0.05" opacity="0.41" />
    <circle cx="142.5" cy="82.2" r="0.07" opacity="0.30" />
    <circle cx="157.8" cy="88.0" r="0.14" opacity="0.42" />
    <circle cx="7.1" cy="98.0" r="0.10" opacity="0.55" />
    <circle cx="17.2" cy="96.8" r="0.11" opacity="0.68" />
    <circle cx="37.2" cy="97.6" r="0.08" opacity="0.44" />
    <circle cx="43.4" cy="96.5" r="0.09" opacity="0.73" />
    <circle cx="56.5" cy="98.3" r="0.08" opacity="0.48" />
    <circle cx="69.6" cy="94.4" r="0.08" opacity="0.62" />
    <circle cx="84.4" cy="97.1" r="0.10" opacity="0.60" />
    <circle cx="97.7" cy="96.9" r="0.09" opacity="0.35" />
    <circle cx="108.7" cy="93.3" r="0.07" opacity="0.70" />
    <circle cx="124.4" cy="94.1" r="0.10" opacity="0.58" />
    <circle cx="137.8" cy="92.2" r="0.10" opacity="0.51" />
    <circle cx="156.5" cy="96.6" r="0.06" opacity="0.30" />
  </g>
</svg>
