<svg width="720" height="480" viewBox="0 0 720 480" fill="none" xmlns="http://www.w3.org/2000/svg">
  <rect width="720" height="480" rx="40" fill="#DDEEF4"/>
  <rect x="42" y="42" width="636" height="396" rx="32" fill="#F7FBFC"/>
  <circle cx="558" cy="132" r="78" fill="#F6B85C" fill-opacity="0.28"/>
  <path d="M90 222C148 166 202 280 260 222C318 166 372 280 430 222C488 166 542 280 630 204" stroke="#3B9FC1" stroke-width="18" stroke-linecap="round"/>
  <path d="M90 284C148 228 202 342 260 284C318 228 372 342 430 284C488 228 542 342 630 266" stroke="#16191F" stroke-width="10" stroke-linecap="round" stroke-opacity="0.22"/>
  <path d="M90 346C148 290 202 404 260 346C318 290 372 404 430 346C488 290 542 404 630 328" stroke="#3B9FC1" stroke-width="8" stroke-linecap="round" stroke-opacity="0.48"/>
  <rect x="92" y="92" width="258" height="76" rx="24" fill="#16191F"/>
  <text x="126" y="141" fill="#F8F8F8" font-family="sans-serif" font-size="28" font-weight="700">RIPPLEFLOW</text>
  <rect x="518" y="354" width="112" height="52" rx="26" fill="#E85D5D"/>
  <text x="545" y="388" fill="#F8F8F8" font-family="sans-serif" font-size="22" font-weight="700">npm</text>
</svg>
